<?xml version="1.0" standalone="no"?>
<!DOCTYPE svg PUBLIC "-//W3C//DTD SVG 20010904//EN"
 "http://www.w3.org/TR/2001/REC-SVG-20010904/DTD/svg10.dtd">
<svg version="1.0" xmlns="http://www.w3.org/2000/svg"
 width="600.000000pt" height="243.000000pt" viewBox="0 0 600.000000 243.000000"
 preserveAspectRatio="xMidYMid meet">
<g transform="translate(0.000000,243.000000) scale(0.100000,-0.100000)"
fill="#000000" stroke="none">
<path d="M1830 2015 c0 -2 341 -1536 345 -1552 l5 -23 240 0 c132 0 240 2 240
4 0 8 270 980 273 983 2 2 9 -21 16 -49 6 -29 67 -251 134 -493 l123 -440 240
-3 240 -2 62 282 c34 156 111 508 172 783 60 275 110 502 110 505 0 3 -103 4
-230 2 -126 -1 -230 -5 -230 -7 0 -2 -36 -196 -80 -430 -44 -234 -80 -432 -81
-438 0 -12 -65 216 -183 646 l-63 228 -228 -1 c-126 0 -231 -2 -233 -4 -2 -2
-55 -194 -119 -427 -63 -233 -118 -431 -121 -439 -2 -8 -10 19 -17 60 -18 107
-145 772 -151 792 -5 16 -28 18 -235 20 -126 2 -229 3 -229 3z m60 -37 c0 10
344 17 371 7 8 -3 16 -20 17 -38 3 -48 10 -84 30 -173 11 -44 18 -94 17 -112
-1 -17 2 -29 6 -27 9 6 22 -62 14 -74 -3 -6 -1 -12 4 -15 5 -3 7 -15 4 -26 -3
-12 0 -20 7 -20 7 0 10 -7 6 -16 -4 -9 -1 -23 6 -32 11 -12 11 -16 0 -20 -8
-2 -10 -8 -4 -15 14 -17 41 -151 45 -219 1 -20 6 -34 11 -30 5 3 7 -1 4 -9 -3
-8 2 -22 12 -31 16 -17 18 -17 40 7 13 14 20 25 16 25 -5 0 -3 7 4 15 6 8 9
19 5 25 -4 6 -3 10 2 9 18 -3 27 2 16 9 -10 6 -9 14 2 36 8 15 12 32 9 37 -2
5 0 18 6 29 6 11 13 34 15 51 3 27 19 84 32 119 4 8 5 19 4 24 -1 5 6 18 16
29 10 11 12 17 4 12 -9 -5 -12 -3 -9 6 3 8 10 13 15 12 6 -1 9 11 7 28 -3 21
0 28 8 23 7 -4 8 -3 4 4 -7 11 19 132 35 162 11 21 23 71 23 98 0 21 1 22 11
8 10 -13 12 -10 12 15 0 19 -3 25 -9 17 -4 -7 -8 -8 -8 -2 0 5 5 15 12 22 7 7
8 12 4 12 -5 0 -3 7 4 15 10 12 45 15 199 15 198 0 226 -3 235 -27 4 -8 1 -11
-5 -7 -6 3 -4 -7 4 -22 14 -28 41 -130 56 -209 4 -22 16 -53 27 -70 10 -16 13
-26 7 -22 -8 5 -13 3 -13 -7 0 -9 5 -16 10 -16 6 0 10 -9 10 -20 0 -11 6 -20
13 -21 9 0 9 -2 -1 -6 -8 -3 -9 -9 -4 -16 16 -22 34 -95 27 -107 -6 -9 -4 -11
5 -5 10 6 12 4 7 -8 -3 -10 -2 -17 3 -17 5 0 7 -6 4 -14 -3 -8 -1 -17 5 -20 6
-4 7 -14 4 -23 -4 -10 -2 -14 4 -10 5 3 10 1 10 -6 0 -7 3 -25 7 -40 4 -19 2
-27 -6 -27 -8 0 -6 -5 4 -11 10 -5 20 -26 24 -47 4 -20 10 -41 14 -47 14 -19
23 -58 11 -51 -7 4 -9 1 -5 -8 5 -12 10 -10 27 7 25 25 44 73 53 137 4 25 9
49 12 54 3 5 6 25 8 45 5 57 8 70 14 66 3 -2 7 12 7 32 1 19 6 40 12 46 6 6
11 16 11 22 0 5 -5 3 -11 -5 -8 -12 -9 -9 -4 10 3 14 8 36 10 50 2 14 11 57
20 95 9 39 18 92 20 119 3 26 8 53 13 60 5 6 7 24 6 39 -2 21 0 26 9 19 9 -8
12 -3 14 15 1 19 -1 22 -8 12 -12 -19 -11 -8 2 30 l11 31 194 0 c178 0 194 -1
194 -17 0 -27 -27 -162 -43 -213 -7 -25 -13 -55 -12 -67 1 -12 -2 -20 -6 -18
-4 3 -7 -5 -7 -18 0 -22 -30 -169 -40 -197 -5 -14 -8 -31 -14 -82 -1 -9 -5
-15 -9 -12 -4 2 -10 -3 -13 -12 -4 -10 -2 -13 6 -8 8 5 9 2 4 -12 -5 -10 -8
-26 -8 -34 0 -8 -6 -37 -14 -65 -7 -27 -15 -61 -18 -75 -2 -14 -9 -45 -16 -70
-6 -25 -12 -51 -12 -57 -1 -7 -4 -13 -8 -13 -3 0 -6 -8 -7 -17 -4 -56 -13
-108 -35 -188 -20 -74 -18 -71 -29 -55 -9 13 -10 13 -6 0 2 -8 10 -14 16 -12
6 1 11 -5 11 -13 0 -8 -4 -15 -9 -15 -6 0 -10 -8 -10 -17 -2 -47 -14 -102 -21
-98 -5 3 -6 -3 -4 -12 2 -10 -2 -40 -9 -68 l-13 -50 -197 -5 c-128 -3 -197 -1
-197 5 0 6 -5 3 -11 -5 -8 -11 -12 -12 -16 -2 -2 6 -9 10 -14 6 -5 -3 -9 0 -9
5 0 16 0 18 -12 53 -5 18 -16 58 -23 88 -12 48 -12 53 1 36 24 -33 16 -9 -11
30 -14 20 -25 51 -25 68 0 18 -4 36 -9 41 -10 10 -31 85 -34 120 -1 11 -5 25
-8 30 -15 26 -18 46 -6 39 6 -4 4 2 -6 13 -16 18 -16 22 -2 33 8 7 15 18 15
24 0 6 -5 4 -10 -4 -6 -10 -12 -11 -18 -5 -10 11 -32 85 -39 130 -3 17 -9 34
-14 39 -5 6 -9 22 -9 36 0 15 -3 30 -7 34 -8 8 -14 34 -14 58 0 10 -5 21 -11
25 -8 4 -5 9 8 14 13 5 14 8 4 8 -8 1 -25 15 -36 32 l-22 31 -25 -28 c-14 -15
-24 -31 -21 -35 2 -5 -7 -48 -21 -96 -15 -48 -28 -97 -30 -108 -12 -61 -17
-79 -21 -87 -3 -5 -7 -19 -10 -33 -2 -13 -9 -37 -16 -52 -6 -16 -13 -37 -15
-48 -1 -11 -10 -42 -19 -70 -9 -27 -16 -60 -16 -72 0 -13 -5 -20 -10 -17 -5 3
-8 0 -7 -7 4 -22 -23 -129 -33 -129 -5 0 -7 -4 -4 -8 3 -5 -1 -28 -8 -53 -7
-24 -11 -50 -9 -56 3 -7 -1 -13 -7 -13 -7 0 -10 -6 -7 -14 3 -8 3 -17 -1 -21
-4 -4 -7 -12 -7 -18 0 -9 -59 -13 -207 -17 -136 -3 -204 -2 -200 5 3 6 -2 4
-11 -4 -9 -7 -18 -11 -18 -7 -1 3 -2 9 -3 14 -1 4 -7 21 -13 37 -7 17 -21 75
-32 130 -11 55 -25 115 -31 134 -5 19 -7 45 -3 59 4 16 2 23 -5 18 -6 -4 -13
10 -17 36 -4 24 -14 67 -22 96 -8 30 -13 67 -11 82 2 16 1 27 -4 24 -8 -5 -9
-4 -14 36 -8 56 -10 67 -23 103 -7 21 -11 47 -8 58 3 10 2 17 -3 14 -7 -4 -12
18 -26 100 -2 11 -10 47 -18 80 -8 33 -19 83 -25 110 -6 28 -20 89 -31 137
-11 47 -17 94 -13 104 4 12 3 15 -5 10 -8 -5 -13 1 -13 16 -1 13 -2 30 -3 38
-1 8 -4 20 -7 25 -3 6 -9 23 -13 39 -6 26 -5 28 8 17 9 -8 16 -9 16 -3z"/>
<path d="M2691 1804 c0 -11 3 -14 6 -6 3 7 2 16 -1 19 -3 4 -6 -2 -5 -13z"/>
<path d="M2886 1457 c3 -10 9 -15 12 -12 3 3 0 11 -7 18 -10 9 -11 8 -5 -6z"/>
<path d="M2341 1434 c0 -11 3 -14 6 -6 3 7 2 16 -1 19 -3 4 -6 -2 -5 -13z"/>
<path d="M3021 1304 c0 -11 3 -14 6 -6 3 7 2 16 -1 19 -3 4 -6 -2 -5 -13z"/>
<path d="M3773 1065 c0 -8 4 -12 9 -9 5 3 6 10 3 15 -9 13 -12 11 -12 -6z"/>
<path d="M2190 555 c0 -5 5 -17 10 -25 5 -8 10 -10 10 -5 0 6 -5 17 -10 25 -5
8 -10 11 -10 5z"/>
<path d="M2215 511 c-3 -5 -2 -12 3 -15 5 -3 9 1 9 9 0 17 -3 19 -12 6z"/>
<path d="M3230 500 c-8 -5 -10 -10 -5 -10 6 0 17 5 25 10 8 5 11 10 5 10 -5 0
-17 -5 -25 -10z"/>
<path d="M470 1225 l0 -785 408 0 c607 0 709 18 834 147 155 160 158 437 7
578 -51 48 -130 90 -188 101 l-34 7 59 27 c173 80 245 272 174 464 -26 68
-100 152 -167 189 -99 53 -137 57 -635 57 l-458 0 0 -785z m961 748 c6 -6 18
-9 27 -6 11 5 13 3 7 -7 -5 -8 -4 -11 2 -7 6 4 27 0 47 -8 39 -16 111 -60 85
-52 -9 3 -16 -1 -16 -8 0 -10 7 -11 26 -3 14 5 22 6 18 2 -3 -4 4 -16 16 -28
24 -22 66 -83 50 -73 -5 3 -9 -3 -9 -13 0 -15 3 -17 16 -7 8 6 12 8 8 3 -4 -5
-2 -18 4 -29 19 -37 17 -234 -3 -221 -5 3 -6 -2 -2 -11 3 -10 0 -20 -6 -25 -7
-4 -13 -13 -14 -21 -4 -27 -49 -80 -64 -77 -9 2 -18 -4 -20 -12 -4 -13 -3 -13
7 0 10 13 11 13 7 0 -2 -8 -17 -18 -33 -21 -20 -5 -23 -7 -9 -9 20 -2 19 -2
-25 -16 -8 -3 -16 -4 -16 -2 -1 2 -11 -6 -23 -16 -23 -20 -28 -46 -10 -46 6 0
9 -6 6 -13 -3 -8 3 -13 17 -13 48 -1 87 -16 81 -32 -4 -12 -3 -12 9 -3 11 9
21 6 47 -16 39 -32 96 -95 89 -98 -3 -1 1 -9 8 -18 8 -9 10 -22 6 -28 -4 -7
-3 -9 3 -6 15 10 37 -67 30 -107 -3 -20 -2 -38 3 -41 5 -3 7 -12 4 -19 -5 -14
-11 -55 -13 -94 -1 -15 -5 -21 -13 -16 -7 5 -8 3 -3 -5 10 -17 -21 -84 -47
-100 -17 -10 -22 -10 -34 6 -14 17 -14 16 -4 -4 11 -24 20 -28 36 -15 5 4 -4
-5 -20 -20 -16 -16 -32 -28 -37 -28 -4 0 -11 -9 -14 -20 -4 -11 -11 -18 -16
-15 -5 4 -9 1 -9 -5 0 -6 -4 -8 -10 -5 -5 3 -10 2 -10 -4 0 -11 -64 -35 -95
-36 -11 0 -22 -3 -25 -7 -7 -8 -96 -21 -155 -22 -22 -1 -42 -3 -45 -6 -8 -8
-790 4 -790 13 0 4 0 345 0 758 l0 750 460 -3 c334 -2 462 -6 471 -15z"/>
<path d="M1524 1913 c4 -4 16 -8 28 -10 28 -4 18 6 -12 12 -12 2 -20 1 -16 -2z"/>
<path d="M1535 1880 c-3 -6 1 -7 9 -4 18 7 21 14 7 14 -6 0 -13 -4 -16 -10z"/>
<path d="M1690 1731 c0 -10 19 -25 25 -20 1 2 -3 10 -11 17 -8 7 -14 8 -14 3z"/>
<path d="M883 1708 c-6 -7 -13 -79 -16 -159 -6 -139 -5 -147 15 -169 20 -21
26 -22 157 -18 92 3 144 8 161 18 14 8 30 13 37 12 6 -1 15 3 19 9 5 8 3 9 -6
4 -9 -6 -11 -4 -6 4 5 7 14 10 22 7 8 -3 13 -2 12 2 -1 4 6 31 16 60 20 60 15
146 -10 156 -9 3 -12 10 -9 16 3 5 1 10 -4 10 -6 0 -11 5 -11 11 0 5 4 8 8 5
5 -3 9 2 9 10 0 10 -4 11 -11 4 -13 -13 -29 -13 -21 0 3 6 3 10 -2 11 -4 0
-17 3 -28 6 -11 3 -88 8 -171 10 -118 4 -152 2 -161 -9z m315 -34 c54 -20 82
-62 82 -124 0 -62 -27 -111 -73 -133 -29 -15 -70 -20 -177 -24 l-140 -6 0 154
0 154 132 -3 c91 -2 147 -8 176 -18z"/>
<path d="M1575 1370 c-3 -5 -1 -10 4 -10 6 0 11 5 11 10 0 6 -2 10 -4 10 -3 0
-8 -4 -11 -10z"/>
<path d="M1470 1300 c-9 -6 -10 -10 -3 -10 6 0 15 5 18 10 8 12 4 12 -15 0z"/>
<path d="M1447 1279 c7 -7 15 -10 18 -7 3 3 -2 9 -12 12 -14 6 -15 5 -6 -5z"/>
<path d="M1235 1130 c-13 -6 -15 -9 -5 -9 8 0 22 4 30 9 18 12 2 12 -25 0z"/>
<path d="M886 1121 c2 -2 0 -9 -5 -15 -4 -6 -11 -81 -14 -166 -7 -154 -6 -155
17 -177 23 -22 30 -23 162 -19 77 2 146 5 154 8 8 3 27 8 43 13 15 4 27 11 27
15 0 4 7 11 16 14 14 5 15 4 5 -8 -9 -11 -9 -16 1 -22 7 -4 10 -3 5 1 -4 5 0
17 10 27 46 51 65 105 59 163 -3 28 -7 60 -9 72 -1 12 -4 21 -7 20 -12 -4 -79
56 -74 65 4 6 -1 6 -13 -1 -14 -7 -32 -7 -56 0 -34 9 -330 19 -321 10z m356
-42 c62 -20 91 -59 96 -128 4 -50 0 -66 -18 -97 -38 -61 -80 -73 -265 -75
l-160 -1 -3 162 -3 163 158 -6 c87 -3 175 -11 195 -18z"/>
<path d="M1704 1093 c4 -4 16 -8 28 -10 28 -4 18 6 -12 12 -12 2 -20 1 -16 -2z"/>
<path d="M1635 580 c-3 -5 -1 -10 4 -10 6 0 11 5 11 10 0 6 -2 10 -4 10 -3 0
-8 -4 -11 -10z"/>
<path d="M4080 1815 l0 -196 250 3 250 3 -2 -593 -3 -592 228 0 227 0 0 593 0
592 245 -3 245 -3 0 196 0 195 -720 0 -720 0 0 -195z m1410 11 l0 -165 -231
-3 c-214 -3 -232 -4 -245 -22 -11 -16 -14 -116 -14 -589 0 -314 -2 -572 -5
-575 -6 -7 -374 -4 -386 4 -5 3 -9 12 -9 20 0 8 3 13 8 11 4 -3 7 233 7 523 0
290 -4 526 -8 523 -10 -6 -3 50 9 68 5 8 3 10 -5 5 -7 -5 -18 0 -26 10 -13 18
-30 19 -244 17 l-231 -2 0 169 0 170 690 0 690 0 0 -164z"/>
<path d="M4968 483 c7 -3 16 -2 19 1 4 3 -2 6 -13 5 -11 0 -14 -3 -6 -6z"/>
</g>
</svg>
